<svg viewBox="0 0 348 187" fill="none" xmlns="http://www.w3.org/2000/svg">
<path d="M96 1H1V34H96V1Z" fill="#FFFEFE" stroke="#0E5AEF" stroke-width="2"/>
<path d="M36.1758 15.9004C36.1758 16.8652 35.9551 17.6426 35.5137 18.2324C35.0723 18.8223 34.4746 19.1172 33.7207 19.1172C32.9512 19.1172 32.3457 18.873 31.9043 18.3848V21.4375H30.8203V12.6602H31.8105L31.8633 13.3633C32.3047 12.8164 32.918 12.543 33.7031 12.543C34.4648 12.543 35.0664 12.8301 35.5078 13.4043C35.9531 13.9785 36.1758 14.7773 36.1758 15.8008V15.9004ZM35.0918 15.7773C35.0918 15.0625 34.9395 14.498 34.6348 14.084C34.3301 13.6699 33.9121 13.4629 33.3809 13.4629C32.7246 13.4629 32.2324 13.7539 31.9043 14.3359V17.3652C32.2285 17.9434 32.7246 18.2324 33.3926 18.2324C33.9121 18.2324 34.3242 18.0273 34.6289 17.6172C34.9375 17.2031 35.0918 16.5898 35.0918 15.7773ZM40.1895 19.1172C39.3301 19.1172 38.6309 18.8359 38.0918 18.2734C37.5527 17.707 37.2832 16.9512 37.2832 16.0059V15.8066C37.2832 15.1777 37.4023 14.6172 37.6406 14.125C37.8828 13.6289 38.2188 13.2422 38.6484 12.9648C39.082 12.6836 39.5508 12.543 40.0547 12.543C40.8789 12.543 41.5195 12.8145 41.9766 13.3574C42.4336 13.9004 42.6621 14.6777 42.6621 15.6895V16.1406H38.3672C38.3828 16.7656 38.5645 17.2715 38.9121 17.6582C39.2637 18.041 39.709 18.2324 40.248 18.2324C40.6309 18.2324 40.9551 18.1543 41.2207 17.998C41.4863 17.8418 41.7188 17.6348 41.918 17.377L42.5801 17.8926C42.0488 18.709 41.252 19.1172 40.1895 19.1172ZM40.0547 13.4336C39.6172 13.4336 39.25 13.5938 38.9531 13.9141C38.6562 14.2305 38.4727 14.6758 38.4023 15.25H41.5781V15.168C41.5469 14.6172 41.3984 14.1914 41.1328 13.8906C40.8672 13.5859 40.5078 13.4336 40.0547 13.4336ZM46.9863 13.6328C46.8223 13.6055 46.6445 13.5918 46.4531 13.5918C45.7422 13.5918 45.2598 13.8945 45.0059 14.5V19H43.9219V12.6602H44.9766L44.9941 13.3926C45.3496 12.8262 45.8535 12.543 46.5059 12.543C46.7168 12.543 46.877 12.5703 46.9863 12.625V13.6328ZM51.6797 17.3184C51.6797 17.0254 51.5684 16.7988 51.3457 16.6387C51.127 16.4746 50.7422 16.334 50.1914 16.2168C49.6445 16.0996 49.209 15.959 48.8848 15.7949C48.5645 15.6309 48.3262 15.4355 48.1699 15.209C48.0176 14.9824 47.9414 14.7129 47.9414 14.4004C47.9414 13.8809 48.1602 13.4414 48.5977 13.082C49.0391 12.7227 49.6016 12.543 50.2852 12.543C51.0039 12.543 51.5859 12.7285 52.0312 13.0996C52.4805 13.4707 52.7051 13.9453 52.7051 14.5234H51.6152C51.6152 14.2266 51.4883 13.9707 51.2344 13.7559C50.9844 13.541 50.668 13.4336 50.2852 13.4336C49.8906 13.4336 49.582 13.5195 49.3594 13.6914C49.1367 13.8633 49.0254 14.0879 49.0254 14.3652C49.0254 14.627 49.1289 14.8242 49.3359 14.957C49.543 15.0898 49.916 15.2168 50.4551 15.3379C50.998 15.459 51.4375 15.6035 51.7734 15.7715C52.1094 15.9395 52.3574 16.1426 52.5176 16.3809C52.6816 16.6152 52.7637 16.9023 52.7637 17.2422C52.7637 17.8086 52.5371 18.2637 52.084 18.6074C51.6309 18.9473 51.043 19.1172 50.3203 19.1172C49.8125 19.1172 49.3633 19.0273 48.9727 18.8477C48.582 18.668 48.2754 18.418 48.0527 18.0977C47.834 17.7734 47.7246 17.4238 47.7246 17.0488H48.8086C48.8281 17.4121 48.9727 17.7012 49.2422 17.916C49.5156 18.127 49.875 18.2324 50.3203 18.2324C50.7305 18.2324 51.0586 18.1504 51.3047 17.9863C51.5547 17.8184 51.6797 17.5957 51.6797 17.3184ZM53.8887 15.7715C53.8887 15.1504 54.0098 14.5918 54.252 14.0957C54.498 13.5996 54.8379 13.2168 55.2715 12.9473C55.709 12.6777 56.207 12.543 56.7656 12.543C57.6289 12.543 58.3262 12.8418 58.8574 13.4395C59.3926 14.0371 59.6602 14.832 59.6602 15.8242V15.9004C59.6602 16.5176 59.541 17.0723 59.3027 17.5645C59.0684 18.0527 58.7305 18.4336 58.2891 18.707C57.8516 18.9805 57.3477 19.1172 56.7773 19.1172C55.918 19.1172 55.2207 18.8184 54.6855 18.2207C54.1543 17.623 53.8887 16.832 53.8887 15.8477V15.7715ZM54.9785 15.9004C54.9785 16.6035 55.1406 17.168 55.4648 17.5938C55.793 18.0195 56.2305 18.2324 56.7773 18.2324C57.3281 18.2324 57.7656 18.0176 58.0898 17.5879C58.4141 17.1543 58.5762 16.5488 58.5762 15.7715C58.5762 15.0762 58.4102 14.5137 58.0781 14.084C57.75 13.6504 57.3125 13.4336 56.7656 13.4336C56.2305 13.4336 55.7988 13.6465 55.4707 14.0723C55.1426 14.498 54.9785 15.1074 54.9785 15.9004ZM62.0449 12.6602L62.0801 13.457C62.5645 12.8477 63.1973 12.543 63.9785 12.543C65.3184 12.543 65.9941 13.2988 66.0059 14.8105V19H64.9219V14.8047C64.918 14.3477 64.8125 14.0098 64.6055 13.791C64.4023 13.5723 64.084 13.4629 63.6504 13.4629C63.2988 13.4629 62.9902 13.5566 62.7246 13.7441C62.459 13.9316 62.252 14.1777 62.1035 14.4824V19H61.0195V12.6602H62.0449Z" fill="black"/>
<path d="M258 73H175V103H258V73Z" fill="#0E5AEF"/>
<path d="M347 73H258V102H347V73Z" fill="white" stroke="#0E5AEF"/>
<path d="M202.846 84.6602L202.881 85.457C203.365 84.8477 203.998 84.543 204.779 84.543C206.119 84.543 206.795 85.2988 206.807 86.8105V91H205.723V86.8047C205.719 86.3477 205.613 86.0098 205.406 85.791C205.203 85.5723 204.885 85.4629 204.451 85.4629C204.1 85.4629 203.791 85.5566 203.525 85.7441C203.26 85.9316 203.053 86.1777 202.904 86.4824V91H201.82V84.6602H202.846ZM212.355 91C212.293 90.875 212.242 90.6523 212.203 90.332C211.699 90.8555 211.098 91.1172 210.398 91.1172C209.773 91.1172 209.26 90.9414 208.857 90.5898C208.459 90.2344 208.26 89.7852 208.26 89.2422C208.26 88.582 208.51 88.0703 209.01 87.707C209.514 87.3398 210.221 87.1562 211.131 87.1562H212.186V86.6582C212.186 86.2793 212.072 85.9785 211.846 85.7559C211.619 85.5293 211.285 85.416 210.844 85.416C210.457 85.416 210.133 85.5137 209.871 85.709C209.609 85.9043 209.479 86.1406 209.479 86.418H208.389C208.389 86.1016 208.5 85.7969 208.723 85.5039C208.949 85.207 209.254 84.9727 209.637 84.8008C210.023 84.6289 210.447 84.543 210.908 84.543C211.639 84.543 212.211 84.7266 212.625 85.0938C213.039 85.457 213.254 85.959 213.27 86.5996V89.5176C213.27 90.0996 213.344 90.5625 213.492 90.9062V91H212.355ZM210.557 90.1738C210.896 90.1738 211.219 90.0859 211.523 89.9102C211.828 89.7344 212.049 89.5059 212.186 89.2246V87.9238H211.336C210.008 87.9238 209.344 88.3125 209.344 89.0898C209.344 89.4297 209.457 89.6953 209.684 89.8867C209.91 90.0781 210.201 90.1738 210.557 90.1738ZM215.988 84.6602L216.018 85.3633C216.482 84.8164 217.109 84.543 217.898 84.543C218.785 84.543 219.389 84.8828 219.709 85.5625C219.92 85.2578 220.193 85.0117 220.529 84.8242C220.869 84.6367 221.27 84.543 221.73 84.543C223.121 84.543 223.828 85.2793 223.852 86.752V91H222.768V86.8164C222.768 86.3633 222.664 86.0254 222.457 85.8027C222.25 85.5762 221.902 85.4629 221.414 85.4629C221.012 85.4629 220.678 85.584 220.412 85.8262C220.146 86.0645 219.992 86.3867 219.949 86.793V91H218.859V86.8457C218.859 85.9238 218.408 85.4629 217.506 85.4629C216.795 85.4629 216.309 85.7656 216.047 86.3711V91H214.963V84.6602H215.988ZM228.123 91.1172C227.264 91.1172 226.564 90.8359 226.025 90.2734C225.486 89.707 225.217 88.9512 225.217 88.0059V87.8066C225.217 87.1777 225.336 86.6172 225.574 86.125C225.816 85.6289 226.152 85.2422 226.582 84.9648C227.016 84.6836 227.484 84.543 227.988 84.543C228.812 84.543 229.453 84.8145 229.91 85.3574C230.367 85.9004 230.596 86.6777 230.596 87.6895V88.1406H226.301C226.316 88.7656 226.498 89.2715 226.846 89.6582C227.197 90.041 227.643 90.2324 228.182 90.2324C228.564 90.2324 228.889 90.1543 229.154 89.998C229.42 89.8418 229.652 89.6348 229.852 89.377L230.514 89.8926C229.982 90.709 229.186 91.1172 228.123 91.1172ZM227.988 85.4336C227.551 85.4336 227.184 85.5938 226.887 85.9141C226.59 86.2305 226.406 86.6758 226.336 87.25H229.512V87.168C229.48 86.6172 229.332 86.1914 229.066 85.8906C228.801 85.5859 228.441 85.4336 227.988 85.4336Z" fill="white"/>
<path d="M293.564 82.4688H294.695V88.5098C294.695 89.3262 294.449 89.9648 293.957 90.4258C293.469 90.8867 292.816 91.1172 292 91.1172C291.152 91.1172 290.492 90.9004 290.02 90.4668C289.547 90.0332 289.311 89.4258 289.311 88.6445H290.436C290.436 89.1328 290.568 89.5137 290.834 89.7871C291.104 90.0605 291.492 90.1973 292 90.1973C292.465 90.1973 292.84 90.0508 293.125 89.7578C293.414 89.4648 293.561 89.0547 293.564 88.5273V82.4688ZM296.154 87.7715C296.154 87.1504 296.275 86.5918 296.518 86.0957C296.764 85.5996 297.104 85.2168 297.537 84.9473C297.975 84.6777 298.473 84.543 299.031 84.543C299.895 84.543 300.592 84.8418 301.123 85.4395C301.658 86.0371 301.926 86.832 301.926 87.8242V87.9004C301.926 88.5176 301.807 89.0723 301.568 89.5645C301.334 90.0527 300.996 90.4336 300.555 90.707C300.117 90.9805 299.613 91.1172 299.043 91.1172C298.184 91.1172 297.486 90.8184 296.951 90.2207C296.42 89.623 296.154 88.832 296.154 87.8477V87.7715ZM297.244 87.9004C297.244 88.6035 297.406 89.168 297.73 89.5938C298.059 90.0195 298.496 90.2324 299.043 90.2324C299.594 90.2324 300.031 90.0176 300.355 89.5879C300.68 89.1543 300.842 88.5488 300.842 87.7715C300.842 87.0762 300.676 86.5137 300.344 86.084C300.016 85.6504 299.578 85.4336 299.031 85.4336C298.496 85.4336 298.064 85.6465 297.736 86.0723C297.408 86.498 297.244 87.1074 297.244 87.9004ZM304.369 85.4277C304.85 84.8379 305.475 84.543 306.244 84.543C307.584 84.543 308.26 85.2988 308.271 86.8105V91H307.188V86.8047C307.184 86.3477 307.078 86.0098 306.871 85.791C306.668 85.5723 306.35 85.4629 305.916 85.4629C305.564 85.4629 305.256 85.5566 304.99 85.7441C304.725 85.9316 304.518 86.1777 304.369 86.4824V91H303.285V82H304.369V85.4277ZM310.92 84.6602L310.955 85.457C311.439 84.8477 312.072 84.543 312.854 84.543C314.193 84.543 314.869 85.2988 314.881 86.8105V91H313.797V86.8047C313.793 86.3477 313.688 86.0098 313.48 85.791C313.277 85.5723 312.959 85.4629 312.525 85.4629C312.174 85.4629 311.865 85.5566 311.6 85.7441C311.334 85.9316 311.127 86.1777 310.979 86.4824V91H309.895V84.6602H310.92Z" fill="black"/>
<path d="M100.685 36.1674C100.44 36.0409 100.138 36.1373 100.012 36.3828C99.885 36.6282 99.9814 36.9297 100.227 37.0563L100.685 36.1674ZM171.334 73.7142C171.579 73.8407 171.881 73.7443 172.007 73.4989C172.134 73.2534 172.037 72.9519 171.792 72.8253L171.334 73.7142ZM100.227 37.0563L171.334 73.7142L171.792 72.8253L100.685 36.1674L100.227 37.0563Z" fill="#FF008A"/>
<circle cx="98.6783" cy="35.6954" r="2.25" transform="rotate(27.2725 98.6783 35.6954)" stroke="#FF008A" stroke-width="1.5"/>
<path d="M166.921 73.6678C166.623 73.8406 166.733 74.3009 167.065 74.2735L172.403 74.1993C172.803 74.1937 173.035 73.7442 172.808 73.4151L169.781 69.0342C169.619 68.7423 169.176 68.9066 169.198 69.2505C169.317 71.1094 168.53 72.734 166.921 73.6678Z" fill="#FF008A"/>
<path d="M101.943 149.941C101.713 150.094 101.651 150.405 101.804 150.634C101.957 150.864 102.267 150.926 102.497 150.773L101.943 149.941ZM172.407 104.205C172.637 104.052 172.699 103.742 172.546 103.512C172.393 103.282 172.083 103.22 171.853 103.373L172.407 104.205ZM102.497 150.773L172.407 104.205L171.853 103.373L101.943 149.941L102.497 150.773Z" fill="#FF008A"/>
<circle cx="100.556" cy="151.466" r="2.25" transform="rotate(-33.6683 100.556 151.466)" stroke="#FF008A" stroke-width="1.5"/>
<path d="M170.223 108.04C170.23 108.384 170.685 108.512 170.823 108.208L173.351 103.506C173.54 103.153 173.26 102.732 172.862 102.771L167.562 103.289C167.228 103.289 167.157 103.756 167.468 103.904C169.151 104.703 170.189 106.18 170.223 108.04Z" fill="#FF008A"/>
<path d="M96 153H1V186H96V153Z" fill="#FFFEFE" stroke="#0E5AEF" stroke-width="2"/>
<path d="M22.5566 170.777C22.5566 169.805 22.7871 169.023 23.248 168.434C23.709 167.84 24.3125 167.543 25.0586 167.543C25.8008 167.543 26.3887 167.797 26.8223 168.305V165H27.9062V174H26.9102L26.8574 173.32C26.4238 173.852 25.8203 174.117 25.0469 174.117C24.3125 174.117 23.7129 173.816 23.248 173.215C22.7871 172.613 22.5566 171.828 22.5566 170.859V170.777ZM23.6406 170.9C23.6406 171.619 23.7891 172.182 24.0859 172.588C24.3828 172.994 24.793 173.197 25.3164 173.197C26.0039 173.197 26.5059 172.889 26.8223 172.271V169.359C26.498 168.762 26 168.463 25.3281 168.463C24.7969 168.463 24.3828 168.668 24.0859 169.078C23.7891 169.488 23.6406 170.096 23.6406 170.9ZM32.2246 174.117C31.3652 174.117 30.666 173.836 30.127 173.273C29.5879 172.707 29.3184 171.951 29.3184 171.006V170.807C29.3184 170.178 29.4375 169.617 29.6758 169.125C29.918 168.629 30.2539 168.242 30.6836 167.965C31.1172 167.684 31.5859 167.543 32.0898 167.543C32.9141 167.543 33.5547 167.814 34.0117 168.357C34.4688 168.9 34.6973 169.678 34.6973 170.689V171.141H30.4023C30.418 171.766 30.5996 172.271 30.9473 172.658C31.2988 173.041 31.7441 173.232 32.2832 173.232C32.666 173.232 32.9902 173.154 33.2559 172.998C33.5215 172.842 33.7539 172.635 33.9531 172.377L34.6152 172.893C34.084 173.709 33.2871 174.117 32.2246 174.117ZM32.0898 168.434C31.6523 168.434 31.2852 168.594 30.9883 168.914C30.6914 169.23 30.5078 169.676 30.4375 170.25H33.6133V170.168C33.582 169.617 33.4336 169.191 33.168 168.891C32.9023 168.586 32.543 168.434 32.0898 168.434ZM37.9668 172.529L39.5371 167.66H40.6445L38.3711 174H37.5449L35.248 167.66H36.3555L37.9668 172.529ZM44.2363 174.117C43.377 174.117 42.6777 173.836 42.1387 173.273C41.5996 172.707 41.3301 171.951 41.3301 171.006V170.807C41.3301 170.178 41.4492 169.617 41.6875 169.125C41.9297 168.629 42.2656 168.242 42.6953 167.965C43.1289 167.684 43.5977 167.543 44.1016 167.543C44.9258 167.543 45.5664 167.814 46.0234 168.357C46.4805 168.9 46.709 169.678 46.709 170.689V171.141H42.4141C42.4297 171.766 42.6113 172.271 42.959 172.658C43.3105 173.041 43.7559 173.232 44.2949 173.232C44.6777 173.232 45.002 173.154 45.2676 172.998C45.5332 172.842 45.7656 172.635 45.9648 172.377L46.627 172.893C46.0957 173.709 45.2988 174.117 44.2363 174.117ZM44.1016 168.434C43.6641 168.434 43.2969 168.594 43 168.914C42.7031 169.23 42.5195 169.676 42.4492 170.25H45.625V170.168C45.5938 169.617 45.4453 169.191 45.1797 168.891C44.9141 168.586 44.5547 168.434 44.1016 168.434ZM49.1465 174H48.0625V165H49.1465V174ZM50.5996 170.771C50.5996 170.15 50.7207 169.592 50.9629 169.096C51.209 168.6 51.5488 168.217 51.9824 167.947C52.4199 167.678 52.918 167.543 53.4766 167.543C54.3398 167.543 55.0371 167.842 55.5684 168.439C56.1035 169.037 56.3711 169.832 56.3711 170.824V170.9C56.3711 171.518 56.252 172.072 56.0137 172.564C55.7793 173.053 55.4414 173.434 55 173.707C54.5625 173.98 54.0586 174.117 53.4883 174.117C52.6289 174.117 51.9316 173.818 51.3965 173.221C50.8652 172.623 50.5996 171.832 50.5996 170.848V170.771ZM51.6895 170.9C51.6895 171.604 51.8516 172.168 52.1758 172.594C52.5039 173.02 52.9414 173.232 53.4883 173.232C54.0391 173.232 54.4766 173.018 54.8008 172.588C55.125 172.154 55.2871 171.549 55.2871 170.771C55.2871 170.076 55.1211 169.514 54.7891 169.084C54.4609 168.65 54.0234 168.434 53.4766 168.434C52.9414 168.434 52.5098 168.646 52.1816 169.072C51.8535 169.498 51.6895 170.107 51.6895 170.9ZM63.0859 170.9C63.0859 171.865 62.8652 172.643 62.4238 173.232C61.9824 173.822 61.3848 174.117 60.6309 174.117C59.8613 174.117 59.2559 173.873 58.8145 173.385V176.438H57.7305V167.66H58.7207L58.7734 168.363C59.2148 167.816 59.8281 167.543 60.6133 167.543C61.375 167.543 61.9766 167.83 62.418 168.404C62.8633 168.979 63.0859 169.777 63.0859 170.801V170.9ZM62.002 170.777C62.002 170.062 61.8496 169.498 61.5449 169.084C61.2402 168.67 60.8223 168.463 60.291 168.463C59.6348 168.463 59.1426 168.754 58.8145 169.336V172.365C59.1387 172.943 59.6348 173.232 60.3027 173.232C60.8223 173.232 61.2344 173.027 61.5391 172.617C61.8477 172.203 62.002 171.59 62.002 170.777ZM67.0996 174.117C66.2402 174.117 65.541 173.836 65.002 173.273C64.4629 172.707 64.1934 171.951 64.1934 171.006V170.807C64.1934 170.178 64.3125 169.617 64.5508 169.125C64.793 168.629 65.1289 168.242 65.5586 167.965C65.9922 167.684 66.4609 167.543 66.9648 167.543C67.7891 167.543 68.4297 167.814 68.8867 168.357C69.3438 168.9 69.5723 169.678 69.5723 170.689V171.141H65.2773C65.293 171.766 65.4746 172.271 65.8223 172.658C66.1738 173.041 66.6191 173.232 67.1582 173.232C67.541 173.232 67.8652 173.154 68.1309 172.998C68.3965 172.842 68.6289 172.635 68.8281 172.377L69.4902 172.893C68.959 173.709 68.1621 174.117 67.0996 174.117ZM66.9648 168.434C66.5273 168.434 66.1602 168.594 65.8633 168.914C65.5664 169.23 65.3828 169.676 65.3125 170.25H68.4883V170.168C68.457 169.617 68.3086 169.191 68.043 168.891C67.7773 168.586 67.418 168.434 66.9648 168.434ZM73.8965 168.633C73.7324 168.605 73.5547 168.592 73.3633 168.592C72.6523 168.592 72.1699 168.895 71.916 169.5V174H70.832V167.66H71.8867L71.9043 168.393C72.2598 167.826 72.7637 167.543 73.416 167.543C73.627 167.543 73.7871 167.57 73.8965 167.625V168.633Z" fill="black"/>
</svg>
