<svg viewBox="0 0 50 38" fill="none" xmlns="http://www.w3.org/2000/svg">
<path d="M19.664 35.04C18.864 35.168 17.984 35.312 17.024 35.472C16.064 35.632 15.2 35.776 14.432 35.904C14.56 34.848 14.688 33.808 14.816 32.784C14.912 31.888 14.992 30.992 15.056 30.096C15.152 29.2 15.232 28.432 15.296 27.792H11.12L9.2 34.704C8.496 34.8 7.664 34.912 6.704 35.04C5.744 35.136 4.848 35.232 4.016 35.328C2.992 35.456 1.984 35.584 0.992004 35.712C2.272 31.456 3.536 27.264 4.784 23.136C5.296 21.408 5.824 19.6 6.368 17.712C6.944 15.824 7.504 13.952 8.048 12.096C8.624 10.208 9.168 8.40001 9.68001 6.67201C10.192 4.94401 10.64 3.36001 11.024 1.92001C13.2 1.76001 15.408 1.56801 17.648 1.34401C19.92 1.12001 22.128 0.816008 24.272 0.432007C24.176 1.45601 24.064 2.73601 23.936 4.27201C23.84 5.77601 23.744 7.42401 23.648 9.21601C23.552 11.008 23.456 12.88 23.36 14.832C23.264 16.784 23.168 18.704 23.072 20.592C22.912 25.008 22.736 29.696 22.544 34.656C21.584 34.816 20.624 34.944 19.664 35.04ZM12.272 22.992C12.4 22.992 12.624 22.992 12.944 22.992C13.296 22.96 13.648 22.944 14 22.944C14.384 22.912 14.736 22.896 15.056 22.896C15.376 22.864 15.6 22.832 15.728 22.8C15.728 22.608 15.744 22.288 15.776 21.84C15.84 21.36 15.888 20.832 15.92 20.256C15.984 19.648 16.048 18.992 16.112 18.288C16.176 17.584 16.24 16.896 16.304 16.224C16.432 14.592 16.592 12.832 16.784 10.944L17.072 6.76801L16.352 6.81601L15.248 10.944L12.272 22.992Z" fill="currentColor"/>
<path d="M48.5026 17.712C48.2786 20.976 47.6386 23.824 46.5826 26.256C45.5266 28.656 44.2466 30.672 42.7426 32.304C41.2706 33.936 39.6706 35.152 37.9426 35.952C36.2466 36.752 34.6306 37.152 33.0946 37.152C31.9106 37.152 30.7746 36.896 29.6866 36.384C28.6306 35.872 27.7026 35.104 26.9026 34.08C26.1346 33.024 25.5266 31.712 25.0786 30.144C24.6306 28.576 24.4066 26.736 24.4066 24.624C24.4066 20.496 24.9986 16.896 26.1826 13.824C27.3666 10.752 28.8546 8.19201 30.6466 6.14401C32.4706 4.09601 34.4066 2.57601 36.4546 1.58401C38.5346 0.592009 40.4706 0.0960083 42.2626 0.0960083C43.5426 0.0960083 44.6466 0.320008 45.5746 0.768008C46.5346 1.21601 47.3186 1.82401 47.9266 2.59201C48.5346 3.32801 48.9666 4.20801 49.2226 5.23201C49.5106 6.22401 49.6546 7.28001 49.6546 8.40001L43.0786 9.64801C42.7906 8.36801 42.4066 7.45601 41.9266 6.91201C41.4466 6.36801 40.9026 6.09601 40.2946 6.09601C39.4946 6.09601 38.6146 6.67201 37.6546 7.82401C36.6946 8.94401 35.7986 10.4 34.9666 12.192C34.1346 13.984 33.4306 15.952 32.8546 18.096C32.2786 20.24 31.9586 22.352 31.8946 24.432C31.8946 26.416 32.1826 27.84 32.7586 28.704C33.3666 29.536 34.1346 29.952 35.0626 29.952C35.7026 29.952 36.3586 29.792 37.0306 29.472C37.7346 29.152 38.3586 28.704 38.9026 28.128C39.4466 27.52 39.8946 26.832 40.2466 26.064C40.6306 25.264 40.8386 24.4 40.8706 23.472L35.7346 24.24L36.6466 19.488C38.1506 19.296 39.6226 19.104 41.0626 18.912C42.2786 18.752 43.5586 18.56 44.9026 18.336C46.2786 18.112 47.4786 17.904 48.5026 17.712Z" fill="currentColor"/>
</svg>
