<svg viewBox="0 0 231 39" fill="none" xmlns="http://www.w3.org/2000/svg">
<path d="M19.664 36.04C18.864 36.168 17.984 36.312 17.024 36.472C16.064 36.632 15.2 36.776 14.432 36.904C14.56 35.848 14.688 34.808 14.816 33.784C14.912 32.888 14.992 31.992 15.056 31.096C15.152 30.2 15.232 29.432 15.296 28.792H11.12L9.2 35.704C8.496 35.8 7.66401 35.912 6.70401 36.04C5.74401 36.136 4.848 36.232 4.016 36.328C2.992 36.456 1.984 36.584 0.992004 36.712C2.272 32.456 3.536 28.264 4.784 24.136C5.296 22.408 5.824 20.6 6.368 18.712C6.944 16.824 7.50401 14.952 8.04801 13.096C8.62401 11.208 9.168 9.4 9.68001 7.672C10.192 5.944 10.64 4.36 11.024 2.92C13.2 2.76 15.408 2.568 17.648 2.34399C19.92 2.12 22.128 1.816 24.272 1.43199C24.176 2.45599 24.064 3.736 23.936 5.272C23.84 6.776 23.744 8.424 23.648 10.216C23.552 12.008 23.456 13.88 23.36 15.832C23.264 17.784 23.168 19.704 23.072 21.592C22.912 26.008 22.736 30.696 22.544 35.656C21.584 35.816 20.624 35.944 19.664 36.04ZM12.272 23.992C12.4 23.992 12.624 23.992 12.944 23.992C13.296 23.96 13.648 23.944 14 23.944C14.384 23.912 14.736 23.896 15.056 23.896C15.376 23.864 15.6 23.832 15.728 23.8C15.728 23.608 15.744 23.288 15.776 22.84C15.84 22.36 15.888 21.832 15.92 21.256C15.984 20.648 16.048 19.992 16.112 19.288C16.176 18.584 16.24 17.896 16.304 17.224C16.432 15.592 16.592 13.832 16.784 11.944L17.072 7.768L16.352 7.816L15.248 11.944L12.272 23.992Z" fill="currentColor"/>
<path d="M48.8776 18.712C48.6536 21.976 48.0136 24.824 46.9576 27.256C45.9016 29.656 44.6216 31.672 43.1176 33.304C41.6456 34.936 40.0456 36.152 38.3176 36.952C36.6216 37.752 35.0056 38.152 33.4696 38.152C32.2856 38.152 31.1496 37.896 30.0616 37.384C29.0056 36.872 28.0776 36.104 27.2776 35.08C26.5096 34.024 25.9016 32.712 25.4536 31.144C25.0056 29.576 24.7816 27.736 24.7816 25.624C24.7816 21.496 25.3736 17.896 26.5576 14.824C27.7416 11.752 29.2296 9.192 31.0216 7.144C32.8456 5.09599 34.7816 3.576 36.8296 2.584C38.9096 1.592 40.8456 1.096 42.6376 1.096C43.9176 1.096 45.0216 1.32 45.9496 1.768C46.9096 2.216 47.6936 2.824 48.3016 3.592C48.9096 4.328 49.3416 5.208 49.5976 6.232C49.8856 7.224 50.0296 8.28 50.0296 9.39999L43.4536 10.648C43.1656 9.368 42.7816 8.456 42.3016 7.912C41.8216 7.368 41.2776 7.096 40.6696 7.096C39.8696 7.096 38.9896 7.672 38.0296 8.824C37.0696 9.944 36.1736 11.4 35.3416 13.192C34.5096 14.984 33.8056 16.952 33.2296 19.096C32.6536 21.24 32.3336 23.352 32.2696 25.432C32.2696 27.416 32.5576 28.84 33.1336 29.704C33.7416 30.536 34.5096 30.952 35.4376 30.952C36.0776 30.952 36.7336 30.792 37.4056 30.472C38.1096 30.152 38.7336 29.704 39.2776 29.128C39.8216 28.52 40.2696 27.832 40.6216 27.064C41.0056 26.264 41.2136 25.4 41.2456 24.472L36.1096 25.24L37.0216 20.488C38.5256 20.296 39.9976 20.104 41.4376 19.912C42.6536 19.752 43.9336 19.56 45.2776 19.336C46.6536 19.112 47.8536 18.904 48.8776 18.712Z" fill="currentColor"/>
<path d="M46.9588 37.24C47.9188 32.632 48.8308 28.168 49.6948 23.848C50.0148 21.992 50.3508 20.072 50.7028 18.088C51.0868 16.104 51.4388 14.152 51.7588 12.232C52.0788 10.28 52.3668 8.424 52.6228 6.664C52.8788 4.872 53.0708 3.256 53.1988 1.816C53.6148 1.84799 53.9668 1.86399 54.2548 1.86399C54.5428 1.86399 54.8788 1.86399 55.2628 1.86399C55.7108 1.86399 56.2548 1.86399 56.8948 1.86399C57.5348 1.832 58.1748 1.8 58.8148 1.768C59.4548 1.736 60.1428 1.704 60.8788 1.67199C61.3268 3.912 61.7268 6.072 62.0788 8.152C62.4308 9.976 62.7828 11.848 63.1348 13.768C63.5188 15.688 63.8548 17.32 64.1428 18.664C64.2708 18.024 64.4148 17.288 64.5748 16.456C64.7348 15.592 64.9108 14.696 65.1028 13.768C65.2948 12.84 65.4708 11.912 65.6308 10.984C65.8228 10.024 66.0148 9.08 66.2068 8.152C66.6548 6.072 67.1188 3.928 67.5988 1.72L73.4548 0.999994C72.3668 5.896 71.4068 10.536 70.5748 14.92C70.1908 16.808 69.8068 18.728 69.4228 20.68C69.0708 22.6 68.7348 24.456 68.4148 26.248C68.0948 28.008 67.8228 29.656 67.5988 31.192C67.3748 32.696 67.1988 33.96 67.0708 34.984C66.9748 34.984 66.5908 35.064 65.9188 35.224C65.2788 35.352 64.5268 35.512 63.6628 35.704C62.8308 35.896 61.9828 36.088 61.1188 36.28C60.2868 36.472 59.6628 36.648 59.2468 36.808C59.0548 34.248 58.8468 31.816 58.6228 29.512C58.5268 28.52 58.4148 27.512 58.2868 26.488C58.1908 25.432 58.0788 24.424 57.9508 23.464C57.8228 22.504 57.6948 21.608 57.5668 20.776C57.4388 19.944 57.3108 19.224 57.1828 18.616C57.0868 19.224 56.9588 19.928 56.7988 20.728C56.6388 21.528 56.4788 22.376 56.3188 23.272C56.1588 24.168 55.9988 25.112 55.8388 26.104C55.6788 27.064 55.5028 27.992 55.3108 28.888C54.8948 31.032 54.4468 33.272 53.9668 35.608L46.9588 37.24Z" fill="currentColor"/>
<path d="M68.8059 37.048L75.0939 2.92L90.2619 1.62399C90.0379 2.328 89.8459 3.048 89.6859 3.784C89.5259 4.392 89.3659 5.032 89.2059 5.704C89.0779 6.344 88.9659 6.92 88.8699 7.43199C88.5499 7.464 88.0859 7.496 87.4779 7.528C86.9019 7.528 86.2779 7.544 85.6059 7.576C84.9339 7.576 84.2459 7.576 83.5419 7.576C82.8699 7.576 82.2779 7.576 81.7659 7.576L80.0859 16.168C81.0779 16.104 82.0059 16.056 82.8699 16.024C83.5739 15.992 84.2939 15.976 85.0299 15.976C85.7659 15.976 86.3099 15.96 86.6619 15.928C86.5339 16.824 86.4059 17.704 86.2779 18.568C86.1819 19.432 86.0539 20.312 85.8939 21.208C85.5739 21.24 85.0459 21.272 84.3099 21.304C83.6059 21.304 82.8859 21.32 82.1499 21.352C81.3179 21.384 80.4059 21.416 79.4139 21.448L77.7819 30.28L84.7899 29.176L84.3099 34.648L68.8059 37.048Z" fill="currentColor"/>
<path d="M88.4773 36.28L90.6853 26.632C90.6853 25.256 90.6533 23.768 90.5893 22.168C90.5573 20.536 90.4933 18.904 90.3973 17.272C90.3013 15.64 90.2053 14.072 90.1093 12.568C90.0133 11.032 89.9333 9.68799 89.8693 8.53599C89.8053 7.35199 89.7413 6.408 89.6773 5.704C89.6133 5 89.5813 4.648 89.5813 4.648L97.4053 1.67199V7.528C97.4053 8.328 97.4053 9.144 97.4053 9.976C97.4053 10.808 97.3893 11.624 97.3573 12.424C97.3573 13.224 97.3573 13.976 97.3573 14.68C97.3573 15.384 97.3573 15.976 97.3573 16.456C97.7733 15.368 98.2693 14.024 98.8453 12.424C99.4533 10.824 100.013 9.272 100.525 7.768C101.133 6.008 101.757 4.152 102.397 2.2L109.837 3.87999C108.461 6.632 107.117 9.368 105.805 12.088C105.261 13.272 104.685 14.504 104.077 15.784C103.469 17.032 102.861 18.296 102.253 19.576C101.645 20.824 101.053 22.04 100.477 23.224C99.9013 24.408 99.3733 25.512 98.8933 26.536C98.7333 27.368 98.5253 28.28 98.2693 29.272C98.0453 30.264 97.8213 31.208 97.5973 32.104C97.3093 33.16 97.0053 34.216 96.6853 35.272L88.4773 36.28Z" fill="currentColor"/>
<path d="M111.138 36.712C112.546 32.456 113.89 28.28 115.17 24.184C115.714 22.456 116.274 20.648 116.85 18.76C117.426 16.872 118.002 15 118.578 13.144C119.154 11.288 119.682 9.496 120.162 7.768C120.674 6.04 121.122 4.43999 121.506 2.96799C123.266 2.96799 124.93 2.87199 126.498 2.68C128.066 2.488 129.762 2.312 131.586 2.152C131.49 2.856 131.378 3.65599 131.25 4.55199C131.154 5.41599 131.026 6.328 130.866 7.288C130.738 8.248 130.594 9.24 130.434 10.264C130.274 11.288 130.082 12.6 129.858 14.2C129.634 15.8 129.33 17.8 128.946 20.2H129.57C130.498 17.768 131.266 15.752 131.874 14.152C132.482 12.52 132.978 11.192 133.362 10.168C133.746 9.144 134.13 8.152 134.514 7.19199C134.93 6.2 135.314 5.272 135.666 4.408C136.05 3.512 136.402 2.728 136.722 2.05599C137.522 1.992 138.274 1.912 138.978 1.816C139.682 1.71999 140.386 1.62399 141.09 1.528C141.794 1.4 142.498 1.288 143.202 1.19199C143.938 1.06399 144.738 0.919994 145.602 0.759995C145.282 2.616 144.978 4.52 144.69 6.472C144.402 8.424 144.146 10.376 143.922 12.328C143.698 14.248 143.474 16.152 143.25 18.04C143.058 19.928 142.882 21.72 142.722 23.416C142.338 27.384 142.002 31.256 141.714 35.032L133.362 36.52C133.362 36.36 133.378 35.928 133.41 35.224C133.474 34.52 133.538 33.656 133.602 32.632C133.698 31.608 133.81 30.472 133.938 29.224C134.098 27.976 134.242 26.728 134.37 25.48C134.53 24.232 134.69 23.032 134.85 21.88C135.01 20.696 135.17 19.688 135.33 18.856H134.898C134.45 20.2 133.954 21.624 133.41 23.128C132.866 24.6 132.306 26.104 131.73 27.64C131.186 29.176 130.642 30.68 130.098 32.152C129.554 33.624 129.074 35.032 128.658 36.376C127.538 36.408 126.578 36.456 125.778 36.52C124.978 36.552 124.05 36.6 122.994 36.664L124.53 18.856H123.81C123.746 19.272 123.586 19.976 123.33 20.968C123.074 21.928 122.77 23.048 122.418 24.328C122.098 25.576 121.746 26.888 121.362 28.264C120.978 29.608 120.61 30.872 120.258 32.056C119.938 33.208 119.666 34.168 119.442 34.936C119.218 35.672 119.09 36.088 119.058 36.184L111.138 36.712Z" fill="currentColor"/>
<path d="M142.681 37.048L148.969 2.92L164.137 1.62399C163.913 2.328 163.721 3.048 163.561 3.784C163.401 4.392 163.241 5.032 163.081 5.704C162.953 6.344 162.841 6.92 162.745 7.43199C162.425 7.464 161.961 7.496 161.353 7.528C160.777 7.528 160.153 7.544 159.481 7.576C158.809 7.576 158.121 7.576 157.417 7.576C156.745 7.576 156.153 7.576 155.641 7.576L153.961 16.168C154.953 16.104 155.881 16.056 156.745 16.024C157.449 15.992 158.169 15.976 158.905 15.976C159.641 15.976 160.185 15.96 160.537 15.928C160.409 16.824 160.281 17.704 160.153 18.568C160.057 19.432 159.929 20.312 159.769 21.208C159.449 21.24 158.921 21.272 158.185 21.304C157.481 21.304 156.761 21.32 156.025 21.352C155.193 21.384 154.281 21.416 153.289 21.448L151.657 30.28L158.665 29.176L158.185 34.648L142.681 37.048Z" fill="currentColor"/>
<path d="M158.896 37.24C159.856 32.632 160.768 28.168 161.632 23.848C161.952 21.992 162.288 20.072 162.64 18.088C163.024 16.104 163.376 14.152 163.696 12.232C164.016 10.28 164.304 8.424 164.56 6.664C164.816 4.872 165.008 3.256 165.136 1.816C165.552 1.84799 165.904 1.86399 166.192 1.86399C166.48 1.86399 166.816 1.86399 167.2 1.86399C167.648 1.86399 168.192 1.86399 168.832 1.86399C169.472 1.832 170.112 1.8 170.752 1.768C171.392 1.736 172.08 1.704 172.816 1.67199C173.264 3.912 173.664 6.072 174.016 8.152C174.368 9.976 174.72 11.848 175.072 13.768C175.456 15.688 175.792 17.32 176.08 18.664C176.208 18.024 176.352 17.288 176.512 16.456C176.672 15.592 176.848 14.696 177.04 13.768C177.232 12.84 177.408 11.912 177.568 10.984C177.76 10.024 177.952 9.08 178.144 8.152C178.592 6.072 179.056 3.928 179.536 1.72L185.392 0.999994C184.304 5.896 183.344 10.536 182.512 14.92C182.128 16.808 181.744 18.728 181.36 20.68C181.008 22.6 180.672 24.456 180.352 26.248C180.032 28.008 179.76 29.656 179.536 31.192C179.312 32.696 179.136 33.96 179.008 34.984C178.912 34.984 178.528 35.064 177.856 35.224C177.216 35.352 176.464 35.512 175.6 35.704C174.768 35.896 173.92 36.088 173.056 36.28C172.224 36.472 171.6 36.648 171.184 36.808C170.992 34.248 170.784 31.816 170.56 29.512C170.464 28.52 170.352 27.512 170.224 26.488C170.128 25.432 170.016 24.424 169.888 23.464C169.76 22.504 169.632 21.608 169.504 20.776C169.376 19.944 169.248 19.224 169.12 18.616C169.024 19.224 168.896 19.928 168.736 20.728C168.576 21.528 168.416 22.376 168.256 23.272C168.096 24.168 167.936 25.112 167.776 26.104C167.616 27.064 167.44 27.992 167.248 28.888C166.832 31.032 166.384 33.272 165.904 35.608L158.896 37.24Z" fill="currentColor"/>
<path d="M207.239 11.032C207.239 13.656 206.951 16.136 206.375 18.472C205.831 20.776 205.095 22.904 204.167 24.856C203.239 26.776 202.151 28.504 200.903 30.04C199.687 31.544 198.407 32.84 197.063 33.928C195.719 34.984 194.359 35.8 192.983 36.376C191.607 36.92 190.295 37.192 189.047 37.192C187.991 37.192 187.031 37 186.167 36.616C185.303 36.2 184.551 35.608 183.911 34.84C183.271 34.04 182.759 33.032 182.375 31.816C182.023 30.568 181.847 29.08 181.847 27.352C181.847 25.56 182.071 23.672 182.519 21.688C182.967 19.704 183.575 17.736 184.343 15.784C185.111 13.832 186.055 11.976 187.175 10.216C188.295 8.456 189.527 6.904 190.871 5.56C192.215 4.184 193.655 3.096 195.191 2.29599C196.727 1.496 198.327 1.096 199.991 1.096C201.431 1.096 202.615 1.4 203.543 2.008C204.503 2.584 205.239 3.352 205.751 4.31199C206.295 5.24 206.679 6.296 206.903 7.48C207.127 8.664 207.239 9.848 207.239 11.032ZM188.999 26.104C188.999 26.456 189.063 26.824 189.191 27.208C189.319 27.592 189.495 27.928 189.719 28.216C189.943 28.504 190.215 28.76 190.535 28.984C190.887 29.176 191.255 29.272 191.639 29.272C193.079 29.272 194.359 28.776 195.479 27.784C196.599 26.792 197.527 25.576 198.263 24.136C198.999 22.696 199.559 21.16 199.943 19.528C200.359 17.896 200.567 16.408 200.567 15.064C200.567 14.68 200.535 14.264 200.471 13.816C200.439 13.368 200.343 12.952 200.183 12.568C200.055 12.184 199.831 11.864 199.511 11.608C199.223 11.32 198.823 11.176 198.311 11.176C197.287 11.176 196.343 11.432 195.479 11.944C194.615 12.456 193.831 13.144 193.127 14.008C192.455 14.84 191.863 15.8 191.351 16.888C190.839 17.944 190.391 19.032 190.007 20.152C189.655 21.24 189.399 22.312 189.239 23.368C189.079 24.424 188.999 25.336 188.999 26.104Z" fill="currentColor"/>
<path d="M204.271 37.24C205.231 32.632 206.143 28.168 207.007 23.848C207.327 21.992 207.663 20.072 208.015 18.088C208.399 16.104 208.751 14.152 209.071 12.232C209.391 10.28 209.679 8.424 209.935 6.664C210.191 4.872 210.383 3.256 210.511 1.816C210.927 1.84799 211.279 1.86399 211.567 1.86399C211.855 1.86399 212.191 1.86399 212.575 1.86399C213.023 1.86399 213.567 1.86399 214.207 1.86399C214.847 1.832 215.487 1.8 216.127 1.768C216.767 1.736 217.455 1.704 218.191 1.67199C218.639 3.912 219.039 6.072 219.391 8.152C219.743 9.976 220.095 11.848 220.447 13.768C220.831 15.688 221.167 17.32 221.455 18.664C221.583 18.024 221.727 17.288 221.887 16.456C222.047 15.592 222.223 14.696 222.415 13.768C222.607 12.84 222.783 11.912 222.943 10.984C223.135 10.024 223.327 9.08 223.519 8.152C223.967 6.072 224.431 3.928 224.911 1.72L230.767 0.999994C229.679 5.896 228.719 10.536 227.887 14.92C227.503 16.808 227.119 18.728 226.735 20.68C226.383 22.6 226.047 24.456 225.727 26.248C225.407 28.008 225.135 29.656 224.911 31.192C224.687 32.696 224.511 33.96 224.383 34.984C224.287 34.984 223.903 35.064 223.231 35.224C222.591 35.352 221.839 35.512 220.975 35.704C220.143 35.896 219.295 36.088 218.431 36.28C217.599 36.472 216.975 36.648 216.559 36.808C216.367 34.248 216.159 31.816 215.935 29.512C215.839 28.52 215.727 27.512 215.599 26.488C215.503 25.432 215.391 24.424 215.263 23.464C215.135 22.504 215.007 21.608 214.879 20.776C214.751 19.944 214.623 19.224 214.495 18.616C214.399 19.224 214.271 19.928 214.111 20.728C213.951 21.528 213.791 22.376 213.631 23.272C213.471 24.168 213.311 25.112 213.151 26.104C212.991 27.064 212.815 27.992 212.623 28.888C212.207 31.032 211.759 33.272 211.279 35.608L204.271 37.24Z" fill="currentColor"/>
</svg>
