<svg version="1.1" xmlns="http://www.w3.org/2000/svg" viewBox="0 0 512 512" xmlns:xlink="http://www.w3.org/1999/xlink" enable-background="new 0 0 512 512" class="social-media">
  <g>
    <polygon points="164,240.6 164,271.1 186.2,255.5  "/>
    <polygon points="300.4,241.8 336.2,217.7 266.6,169.3 266.8,217.4  "/>
    <polygon points="242,216.3 242,169.3 173.3,217.4 207.65,240.4  "/>
    <path d="m374,0h-236c-76.2,0-138,61.8-138,138v236c0,76.2 61.8,138 138,138h236c76.2,0 138-61.8 138-138v-236c0-76.2-61.8-138-138-138zm-3,291.5c0,6.2-3.3,12.1-8.5,15.5l-97.1,64.1c-6.2,4.1-14.35,4.1-20.55,0l-95.325-62.9c-5.2-3.4-8.525-9.3-8.525-15.5v-70.2c0-6.1 3.2-11.8 8.2-15.3l93.6-65.2c6.3-4.4 14.65-4.5 20.95-0.3l98.725,65.3c5.2,3.4 8.525,9.3 8.525,15.5v69z"/>
    <polygon points="267,293.4 267,340.9 336.05,294.7 300.275,271.2  "/>
    <polygon points="243,293.5 208.15,270.2 173.625,294.4 243,340.833  "/>
    <polygon points="346,271.9 346,240.6 322.4,256.4  "/>
    <polygon points="252.1,239.4 229.6,255.1 255.1,272.2 278.3,256.6  "/>
  </g>
</svg>